<svg xmlns="http://www.w3.org/2000/svg" xmlns:xlink="http://www.w3.org/1999/xlink" width="13" height="13" viewBox="0 0 13 13">
  <defs>
    <clipPath id="clip-path">
      <rect id="down-arrow_4_" data-name="down-arrow (4)" width="13" height="13" transform="translate(145 338) rotate(-180)" fill="#5666e0"/>
    </clipPath>
  </defs>
  <g id="Mask_Group_56" data-name="Mask Group 56" transform="translate(-132 -325)" clip-path="url(#clip-path)">
    <path id="folder_FILL1_wght400_GRAD0_opsz48" d="M2.291,13a.923.923,0,0,1-.683-.3.945.945,0,0,1-.292-.674V3.575A.945.945,0,0,1,1.609,2.9a.923.923,0,0,1,.683-.3h4.55l.975.975h5.525a.932.932,0,0,1,.674.3.932.932,0,0,1,.3.674v7.475a1.031,1.031,0,0,1-.975.975Z" transform="translate(130.684 323.7)" fill="#5666e0"/>
  </g>
</svg>
