<svg xmlns="http://www.w3.org/2000/svg" xmlns:xlink="http://www.w3.org/1999/xlink" width="13" height="13" viewBox="0 0 13 13">
  <defs>
    <clipPath id="clip-path">
      <rect id="down-arrow_4_" data-name="down-arrow (4)" width="13" height="13" transform="translate(132 244) rotate(-180)" fill="#6c6c6c"/>
    </clipPath>
  </defs>
  <g id="Mask_Group_59" data-name="Mask Group 59" transform="translate(-119 -231)" clip-path="url(#clip-path)">
    <path id="description_FILL1_wght400_GRAD0_opsz48" d="M3.575,14.3a.935.935,0,0,1-.683-.293.935.935,0,0,1-.292-.682V2.275a.935.935,0,0,1,.292-.682A.935.935,0,0,1,3.575,1.3H9.441L13,4.859v8.466a1,1,0,0,1-.975.975Zm5.379-9h3.071L8.954,2.275ZM5.184,8.775h5.232V7.8H5.184Zm0,2.762h5.232v-.975H5.184Z" transform="translate(117.7 229.7)" fill="#6c6c6c"/>
  </g>
</svg>
