<svg height="14" viewBox="0 0 14 14" width="14" xmlns="http://www.w3.org/2000/svg">
  <defs>
    <clipPath id="clip-path">
      <rect data-name="Rectangle 18" fill="#5666e0" height="14" id="Rectangle_18" width="14"/>
    </clipPath>
  </defs>
  <g clip-path="url(#clip-path)" data-name="Mask Group 5" id="Mask_Group_5">
    <g id="github-fill" transform="translate(0)">
      <path d="M0,0H14V14H0Z" data-name="Path 1" fill="none" id="Path_1" transform="translate(0)"/>
      <path d="M8.5,1.5A7,7,0,0,0,6.287,15.142c.35.061.481-.149.481-.333,0-.166-.009-.717-.009-1.3C5,13.829,4.545,13.077,4.4,12.682a2.55,2.55,0,0,0-.717-.989c-.245-.131-.6-.455-.009-.463a1.4,1.4,0,0,1,1.077.717,1.5,1.5,0,0,0,2.038.578,1.472,1.472,0,0,1,.447-.936c-1.557-.175-3.185-.779-3.185-3.457a2.724,2.724,0,0,1,.717-1.882A2.515,2.515,0,0,1,4.842,4.4s.586-.183,1.925.718a6.6,6.6,0,0,1,3.5,0c1.338-.91,1.925-.717,1.925-.717a2.515,2.515,0,0,1,.07,1.855,2.709,2.709,0,0,1,.717,1.881c0,2.687-1.636,3.282-3.193,3.457a1.658,1.658,0,0,1,.472,1.3c0,.936-.009,1.688-.009,1.925,0,.183.132.4.482.332A7,7,0,0,0,8.5,1.5Z" data-name="Path 2"
            fill="#5666e0"
            id="Path_2" transform="translate(-1.5 -1.306)"/>
    </g>
  </g>
</svg>
