<svg xmlns="http://www.w3.org/2000/svg" xmlns:xlink="http://www.w3.org/1999/xlink" width="32" height="32" viewBox="0 0 32 32">
  <defs>
    <clipPath id="clip-path">
      <rect id="Rectangle_1211" data-name="Rectangle 1211" width="32" height="32" transform="translate(138 431)" fill="#fff"/>
    </clipPath>
  </defs>
  <g id="Mask_Group_178" data-name="Mask Group 178" transform="translate(-138 -431)" clip-path="url(#clip-path)">
    <path id="volume_off_FILL1_wght400_GRAD0_opsz48" d="M32.238,35.846,27,30.612a13.758,13.758,0,0,1-2.4,1.368,14.462,14.462,0,0,1-2.677.892V30.414q.912-.278,1.765-.615a7.1,7.1,0,0,0,1.606-.892l-6.543-6.582v9.4l-7.931-7.931H4.481V14.275h6.186L1.943,5.551,3.648,3.846,33.943,34.1Zm-1.428-9.2-1.705-1.705a10.742,10.742,0,0,0,1.17-2.855,12.7,12.7,0,0,0,.377-3.093,12.03,12.03,0,0,0-2.379-7.316,10.4,10.4,0,0,0-6.344-4.1V5.115a14.124,14.124,0,0,1,11.1,13.879,14.364,14.364,0,0,1-.555,3.965A14.006,14.006,0,0,1,30.81,26.647ZM25.5,21.333l-3.569-3.569V12.61a6.584,6.584,0,0,1,2.914,2.617,7.243,7.243,0,0,1,1.051,3.807,6.872,6.872,0,0,1-.1,1.17,6.778,6.778,0,0,1-.3,1.13Zm-6.741-6.741-4.124-4.124,4.124-4.124Z" transform="translate(136.057 427.154)" fill="#fff"/>
  </g>
</svg>
