<svg xmlns="http://www.w3.org/2000/svg" xmlns:xlink="http://www.w3.org/1999/xlink" width="32" height="32" viewBox="0 0 32 32">
  <defs>
    <clipPath id="clip-path">
      <rect id="Rectangle_107" data-name="Rectangle 107" width="32" height="32" transform="translate(1273 649)" fill="#fff"/>
    </clipPath>
  </defs>
  <g id="Mask_Group_23" data-name="Mask Group 23" transform="translate(-1273 -649)" clip-path="url(#clip-path)">
    <path id="volume_up_FILL1_wght400_GRAD0_opsz48" d="M24.222,36.128V33.372a13.379,13.379,0,0,0,7.044-4.778A12.765,12.765,0,0,0,34,20.572a13.249,13.249,0,0,0-9.778-12.8V5.017A15.831,15.831,0,0,1,36.667,20.572,15.831,15.831,0,0,1,24.222,36.128Zm-3.556-1.289L11.778,25.95H4.667V15.283h7.111l8.889-8.889Zm2.667-6.756V13.106A7.284,7.284,0,0,1,27.2,15.95a7.933,7.933,0,0,1,1.467,4.667A7.8,7.8,0,0,1,27.2,25.283,7.36,7.36,0,0,1,23.333,28.083Z" transform="translate(1268.333 644.428)" fill="#fff"/>
  </g>
</svg>
