<svg xmlns="http://www.w3.org/2000/svg" xmlns:xlink="http://www.w3.org/1999/xlink" width="32" height="32" viewBox="0 0 32 32">
  <defs>
    <clipPath id="clip-path">
      <rect id="Rectangle_105" data-name="Rectangle 105" width="32" height="32" fill="#fff"/>
    </clipPath>
  </defs>
  <g id="Mask_Group_26" data-name="Mask Group 26" clip-path="url(#clip-path)">
    <path id="replay_FILL1_wght400_GRAD0_opsz48" d="M17.163,33.173A13.488,13.488,0,0,0,22.522,32.1a13.693,13.693,0,0,0,7.3-7.3,13.488,13.488,0,0,0,1.068-5.359H28.605a11.034,11.034,0,0,1-3.337,8.1,11.034,11.034,0,0,1-8.1,3.337,11.034,11.034,0,0,1-8.1-3.337,11.034,11.034,0,0,1-3.337-8.1,11.2,11.2,0,0,1,3.242-8.1A10.723,10.723,0,0,1,16.973,8h.877l-2.784,2.784,1.564,1.6,5.607-5.607L16.629,1.173,15.066,2.737l2.975,2.975h-.877A13.488,13.488,0,0,0,11.8,6.779a13.693,13.693,0,0,0-7.3,7.3,13.488,13.488,0,0,0-1.068,5.359A13.488,13.488,0,0,0,4.5,24.8a13.693,13.693,0,0,0,7.3,7.3A13.488,13.488,0,0,0,17.163,33.173Z" transform="translate(-1.164 -1.173)" fill="#fff"/>
  </g>
</svg>
