<svg xmlns="http://www.w3.org/2000/svg" xmlns:xlink="http://www.w3.org/1999/xlink" width="32" height="32" viewBox="0 0 32 32">
  <defs>
    <clipPath id="clip-path">
      <rect id="Rectangle_103" data-name="Rectangle 103" width="32" height="32" transform="translate(579 651)" fill="#fff"/>
    </clipPath>
  </defs>
  <g id="Mask_Group_25" data-name="Mask Group 25" transform="translate(-579 -651)" clip-path="url(#clip-path)">
    <path id="replay_FILL1_wght400_GRAD0_opsz48" d="M17.163,33.173A13.488,13.488,0,0,1,11.8,32.1a13.693,13.693,0,0,1-7.3-7.3,13.488,13.488,0,0,1-1.068-5.359H5.721a11.034,11.034,0,0,0,3.337,8.1,11.034,11.034,0,0,0,8.1,3.337,11.034,11.034,0,0,0,8.1-3.337,11.034,11.034,0,0,0,3.337-8.1,11.2,11.2,0,0,0-3.242-8.1A10.723,10.723,0,0,0,17.354,8h-.877l2.784,2.784-1.564,1.6L12.091,6.779,17.7,1.173l1.564,1.564L16.286,5.712h.877a13.488,13.488,0,0,1,5.359,1.068,13.693,13.693,0,0,1,7.3,7.3,13.488,13.488,0,0,1,1.068,5.359A13.488,13.488,0,0,1,29.826,24.8a13.693,13.693,0,0,1-7.3,7.3A13.488,13.488,0,0,1,17.163,33.173Z" transform="translate(577.837 649.827)" fill="#fff"/>
  </g>
</svg>
